<?xml version="1.0" encoding="iso-8859-1"?>
<!-- Generator: Adobe Illustrator 21.0.0, SVG Export Plug-In . SVG Version: 6.00 Build 0)  -->
<svg xmlns="http://www.w3.org/2000/svg" xmlns:xlink="http://www.w3.org/1999/xlink" version="1.1" id="Capa_1" x="0px" y="0px" viewBox="0 0 512 512" style="enable-background:new 0 0 512 512;" xml:space="preserve" width="512" height="512">
<g>
	<path style="fill:#537DA0;" d="M306.701,243.06l-78.48,112.08H51.012c-7.34,0-14.39-3.1-19.36-8.51   c-4.97-5.41-7.47-12.71-6.85-20.03c3.33-39.3,21.13-75.73,50.13-102.58c29.17-27.02,67.13-41.91,106.87-41.91   c44.46,0,87.07,18.98,116.9,52.08L306.701,243.06z"/>
	<path style="fill:#3D5572;" d="M306.701,243.06l-78.48,112.08h-46.42V182.11c44.46,0,87.07,18.98,116.9,52.08L306.701,243.06z"/>
	<path style="fill:#FFE67B;" d="M287.562,106.06c0,58.48-47.45,106.05-105.76,106.05c-58.32,0-105.77-47.57-105.77-106.05   S123.481,0,181.802,0C240.111,0,287.562,47.58,287.562,106.06z"/>
	<path style="fill:#FCC454;" d="M287.562,106.06c0,58.48-47.45,106.05-105.76,106.05V0C240.111,0,287.562,47.58,287.562,106.06z"/>
	<path style="fill:#FFE67B;" d="M487.292,365.12c0,80.99-65.91,146.88-146.93,146.88c-81.01,0-146.92-65.89-146.92-146.88   c0-80.98,65.91-146.87,146.92-146.87C421.382,218.25,487.292,284.14,487.292,365.12z"/>
	<path style="fill:#FCC454;" d="M487.292,365.12c0,80.99-65.91,146.88-146.93,146.88V218.25   C421.382,218.25,487.292,284.14,487.292,365.12z"/>
	<path style="fill:#FFFFFF;" d="M393.751,386.68v0.39c-0.11,20.19-16.57,36.59-36.8,36.59h-1.63v13.19c0,8.28-6.68,15-14.96,15   c-8.28,0-15.04-6.72-15.04-15v-13.19h-25.9c-8.28,0-15-6.71-15-15c0-8.28,6.72-15,15-15h57.53c3.75,0,6.8-3.04,6.8-6.79   c0-3.74-3.05-6.79-6.8-6.79h-35.73c-20.22,0-36.69-16.39-36.79-36.59c0-0.07-0.01-0.13-0.01-0.2c0-0.06,0.01-0.13,0.01-0.19   c0.1-20.2,16.57-36.6,36.79-36.6h4.1v-13.1c0-8.28,6.76-15,15.04-15c8.28,0,14.96,6.72,14.96,15v13.1h23.43c8.29,0,15,6.72,15,15   c0,8.29-6.71,15-15,15h-57.53c-3.75,0-6.8,3.05-6.8,6.79c0,3.75,3.05,6.79,6.8,6.79h35.73   C377.181,350.08,393.642,366.48,393.751,386.68z"/>
	<path style="fill:#D9EFFF;" d="M378.751,336.5h-38.39v-58.1c8.28,0,14.96,6.72,14.96,15v13.1h23.43c8.29,0,15,6.72,15,15   C393.751,329.79,387.042,336.5,378.751,336.5z"/>
	<path style="fill:#D9EFFF;" d="M393.751,386.68v0.39c-0.11,20.19-16.57,36.59-36.8,36.59h-1.63v13.19c0,8.28-6.68,15-14.96,15   v-58.19h16.59c3.75,0,6.8-3.04,6.8-6.79c0-3.74-3.05-6.79-6.8-6.79h-16.59v-30h16.59C377.181,350.08,393.642,366.48,393.751,386.68   z"/>
</g>















</svg>
