<svg id="Layer_5" enable-background="new 0 0 64 64" height="512" viewBox="0 0 64 64" width="512" xmlns="http://www.w3.org/2000/svg"><g><g><g><path d="m24 30v4h-14v-4c0-1.1.9-2 2-2h5 5c1.1 0 2 .9 2 2z" fill="#838f9b"/></g><g><path d="m24.46 34c.98.57 1.89 1.24 2.71 2 1.24 1.14 2.29 2.49 3.09 4 .96 1.81 1.56 3.84 1.7 6 .03.33.04.66.04 1 0 5.55-3.02 10.41-7.52 13-2.2 1.27-4.75 2-7.48 2-8.28 0-15-6.72-15-15 0-5.56 3.04-10.41 7.54-13h.46 14z" fill="#969faa"/></g><g><path d="m31.97 46h-.01c.03.33.04.66.04 1 0 5.55-3.02 10.41-7.52 13h35.52c1.1 0 2-.9 2-2v-12z" fill="#b4dd7f"/></g><g><path d="m42.05 36h7.9l2.2 4h-21.89c-.8-1.51-1.85-2.86-3.09-4h8.5z" fill="#b4dd7f"/></g><g><path d="m62 38v2h-4l-2.14-4h4.14c1.1 0 2 .9 2 2z" fill="#b4dd7f"/></g><g><path d="m62 40v6h-5.71l1.71-6z" fill="#fcd770"/></g><g><path d="m52.15 40 3.3 6h-23.48-.01c-.14-2.16-.74-4.19-1.7-6z" fill="#fcd770"/></g><g><path d="m55 50c1.66 0 3 1.34 3 3s-1.34 3-3 3c-.77 0-1.46-.3-1.99-.78.61-.54.99-1.34.99-2.22s-.38-1.68-.99-2.22c.53-.48 1.22-.78 1.99-.78z" fill="#e6e9ed"/></g><g><path d="m53.01 50.78c.61.54.99 1.34.99 2.22s-.38 1.68-.99 2.22c0 .01-.01 0-.01 0-.53.49-1.23.78-2 .78-1.66 0-3-1.34-3-3s1.34-3 3-3c.77 0 1.47.29 2 .78 0 0 .01-.01.01 0z" fill="#ff826e"/></g><g><path d="m42.84 23.08 3.16 5.74-3.95 7.18h-6.38z" fill="#ccd1d9"/></g><g><path d="m53.19 15.76-4.15 7.5-3.12-5.82.08-.04 2.83-5.09c.9 1.68 2.47 2.95 4.36 3.45z" fill="#ccd1d9"/></g><g><path d="m56.29 46-.29 1-.55-1-3.3-6-2.2-4-3.95-7.18-3.16-5.74-4.03-7.32c1.89-.5 3.46-1.77 4.36-3.45l2.75 5.13 3.12 5.82 6.82 12.74 2.14 4z" fill="#e6e9ed"/></g><g><path d="m38.81 15.76c-.58.16-1.18.24-1.81.24-3.87 0-7-3.13-7-7s3.13-7 7-7 7 3.13 7 7c0 1.2-.3 2.32-.83 3.31-.9 1.68-2.47 2.95-4.36 3.45zm1.19-6.76c0-1.66-1.34-3-3-3s-3 1.34-3 3 1.34 3 3 3 3-1.34 3-3z" fill="#ff826e"/></g><g><path d="m53.19 15.76c-1.89-.5-3.46-1.77-4.36-3.45-.53-.99-.83-2.11-.83-3.31 0-3.87 3.13-7 7-7s7 3.13 7 7-3.13 7-7 7c-.63 0-1.23-.08-1.81-.24zm4.81-6.76c0-1.66-1.34-3-3-3s-3 1.34-3 3 1.34 3 3 3 3-1.34 3-3z" fill="#ff826e"/></g></g><g><path d="m21 44.905c0-1.84-1.284-3.378-3-3.789v-2.116h-2v2.117c-1.716.411-3 1.948-3 3.789 0 1.684 1.073 3.173 2.67 3.705l2.026.676c.78.26 1.303.987 1.303 1.809.001 1.05-.854 1.904-1.905 1.904h-.188c-1.051 0-1.906-.854-1.906-1.905v-1.095h-2v1.095c0 1.84 1.284 3.378 3 3.789v2.116h2v-2.117c1.716-.411 3-1.948 3-3.789 0-1.684-1.073-3.173-2.67-3.705l-2.026-.676c-.781-.259-1.304-.986-1.304-1.808 0-1.051.855-1.905 1.906-1.905h.188c1.051 0 1.906.854 1.906 1.905v.095z"/><path d="m15 17.172 1.172-1.172h1.656l1.172 1.172v1.828h4v-2h-3.586l2.536-2.536-1.414-1.414-2.536 2.536v-3.586h-2v3.586l-2.536-2.536-1.414 1.414 2.536 2.536h-3.586v2h4z"/><path d="m60 35h-3.543l-6.281-11.73 3.528-6.385c.422.07.853.115 1.296.115 4.411 0 8-3.589 8-8s-3.589-8-8-8-8 3.589-8 8c0 1.165.256 2.27.706 3.27l-1.742 3.136-1.675-3.127c.453-1.003.711-2.11.711-3.279 0-4.411-3.589-8-8-8s-8 3.589-8 8 3.589 8 8 8c.442 0 .873-.045 1.296-.115l3.406 6.193-6.623 11.922h-7.517c-.783-.691-1.64-1.309-2.562-1.843v-3.157c0-1.654-1.346-3-3-3h-4v-9h-2v9h-4c-1.654 0-3 1.346-3 3v3.157c-4.935 2.858-8 8.157-8 13.843 0 8.822 7.178 16 16 16 2.802 0 5.436-.729 7.729-2h35.271c1.654 0 3-1.346 3-3v-20c0-1.654-1.346-3-3-3zm0 2c.551 0 1 .448 1 1v1h-2.401l-1.071-2zm-7 16c0 1.103-.897 2-2 2s-2-.897-2-2 .897-2 2-2 2 .897 2 2zm1.485-1.924c.157-.044.325-.076.515-.076 1.103 0 2 .897 2 2s-.897 2-2 2c-.19 0-.358-.032-.515-.076.318-.573.515-1.223.515-1.924s-.197-1.351-.515-1.924zm4.269-10.076h2.246v4h-3.389zm-3.754-38c3.309 0 6 2.691 6 6s-2.691 6-6 6-6-2.691-6-6 2.691-6 6-6zm-6.074 11.192c.767.896 1.727 1.619 2.816 2.107l-2.691 4.87-1.964-3.667zm-17.926-5.192c0-3.309 2.691-6 6-6s6 2.691 6 6-2.691 6-6 6-6-2.691-6-6zm12.056 5.212 13.871 25.904-1.222 4.274-15.449-28.09c1.082-.484 2.036-1.201 2.8-2.088zm-11.239 26.788h19.741l2.2 4h-20.888c-.177-1.383-.534-2.726-1.053-4zm16.442-6h-4.518l2.259-4.107zm1.1 2 1.1 2h-19.618c-.406-.701-.871-1.367-1.379-2zm-6.519-11.853 2.019 3.671-3.4 6.182h-4.093zm-30.84 3.853h10c.551 0 1 .449 1 1v3h-12v-3c0-.551.449-1 1-1zm-9 18c0-4.899 2.603-9.474 6.81-12h14.38c4.207 2.526 6.81 7.101 6.81 12 0 7.72-6.28 14-14 14s-14-6.28-14-14zm57 12h-32.453c3.335-2.934 5.453-7.22 5.453-12h21.859l1.186 2.156c-.336-.091-.681-.156-1.045-.156-.707 0-1.394.197-2.003.555-.59-.344-1.266-.555-1.997-.555-2.206 0-4 1.794-4 4s1.794 4 4 4c.731 0 1.407-.211 1.997-.555.609.358 1.296.555 2.003.555 2.206 0 4-1.794 4-4 0-1.714-1.089-3.167-2.607-3.736l.647-2.264h3.96v11c0 .552-.449 1-1 1z"/><path d="m37 5c-2.206 0-4 1.794-4 4s1.794 4 4 4 4-1.794 4-4-1.794-4-4-4zm0 6c-1.103 0-2-.897-2-2s.897-2 2-2 2 .897 2 2-.897 2-2 2z"/><path d="m55 13c2.206 0 4-1.794 4-4s-1.794-4-4-4-4 1.794-4 4 1.794 4 4 4zm0-6c1.103 0 2 .897 2 2s-.897 2-2 2-2-.897-2-2 .897-2 2-2z"/><path d="m34 55h8v2h-8z"/><path d="m34 51h8v2h-8z"/><path d="m5 47c0 .734.067 1.469.198 2.182l1.967-.363c-.109-.594-.165-1.206-.165-1.819 0-2.78 1.114-5.363 3.137-7.272l-1.373-1.455c-2.428 2.291-3.764 5.391-3.764 8.727z"/><path d="m5.818 51.364c.298.763.676 1.497 1.123 2.182l1.675-1.092c-.372-.571-.687-1.183-.935-1.818z"/></g></g></svg>