<svg height="512" viewBox="0 0 58 60" width="512" xmlns="http://www.w3.org/2000/svg"><g id="Page-1" fill="none" fill-rule="evenodd"><g id="097---Marketing-Progress-Report" fill-rule="nonzero"><path id="Rectangle-path" d="m2 6h54v38h-54z" fill="#ecf0f1"/><path id="Shape" d="m29 4c-.5522847 0-1-.44771525-1-1v-2c0-.55228475.4477153-1 1-1s1 .44771525 1 1v2c0 .55228475-.4477153 1-1 1z" fill="#805333"/><path id="Shape" d="m29 60c-.5522847 0-1-.4477153-1-1v-13c0-.5522847.4477153-1 1-1s1 .4477153 1 1v13c0 .5522847-.4477153 1-1 1z" fill="#805333"/><path id="Shape" d="m10 60c-.4043959-.0000863-.76893405-.2437275-.92367798-.6173454-.15474393-.373618-.06922994-.8036603.21667798-1.0896546l13-13c.3923789-.3789722 1.0160848-.3735524 1.4018186.0121814s.3911536 1.0094397.0121814 1.4018186l-13 13c-.1874927.1875494-.4418052.2929434-.707.293z" fill="#805333"/><path id="Shape" d="m48 60c-.2651948-.0000566-.5195073-.1054506-.707-.293l-13-13c-.3789722-.3923789-.3735524-1.0160848.0121814-1.4018186s1.0094397-.3911536 1.4018186-.0121814l13 13c.2859079.2859943.3714219.7160366.216678 1.0896546-.1547439.3736179-.5192821.6172591-.923678.6173454z" fill="#805333"/><path id="Shape" d="m14.251 27c-.2534496.0001261-.5045995-.0480676-.74-.142l-3.252-1.3c-.75695285-.3075385-1.25393617-1.0409738-1.259-1.858v-4.7h2v4.7l3.251 1.3c.011896-.0410332.0259148-.0814209.042-.121l1.457-4.3 1.895.643-1.445 4.253c-.223906.894597-1.0268107 1.5228319-1.949 1.525z" fill="#f29c1f"/><g fill="#f0c419"><path id="Shape" d="m30 40c-.5522847 0-1-.4477153-1-1v-15c0-.5522847.4477153-1 1-1s1 .4477153 1 1v15c0 .5522847-.4477153 1-1 1z"/><path id="Shape" d="m34 40c-.5522847 0-1-.4477153-1-1v-17c0-.5522847.4477153-1 1-1s1 .4477153 1 1v17c0 .5522847-.4477153 1-1 1z"/><path id="Shape" d="m26 40c-.5522847 0-1-.4477153-1-1v-13c0-.5522847.4477153-1 1-1s1 .4477153 1 1v13c0 .5522847-.4477153 1-1 1z"/><path id="Shape" d="m22 40c-.5522847 0-1-.4477153-1-1v-10c0-.5522847.4477153-1 1-1s1 .4477153 1 1v10c0 .5522847-.4477153 1-1 1z"/><path id="Shape" d="m18 40c-.5522847 0-1-.4477153-1-1v-9c0-.5522847.4477153-1 1-1s1 .4477153 1 1v9c0 .5522847-.4477153 1-1 1z"/><path id="Shape" d="m14 40c-.5522847 0-1-.4477153-1-1v-8c0-.5522847.4477153-1 1-1s1 .4477153 1 1v8c0 .5522847-.4477153 1-1 1z"/><path id="Shape" d="m10 40c-.55228475 0-1-.4477153-1-1v-7c0-.5522847.44771525-1 1-1 .5522847 0 1 .4477153 1 1v7c0 .5522847-.4477153 1-1 1z"/><path id="Shape" d="m6 40c-.55228475 0-1-.4477153-1-1v-10c0-.5522847.44771525-1 1-1s1 .4477153 1 1v10c0 .5522847-.44771525 1-1 1z"/></g><path id="Shape" d="m52 32h-7l-2.46-6.55c.7856784-.298827 1.6194131-.4513394 2.46-.45 3.8659932 0 7 3.1340068 7 7z" fill="#955ba5"/><path id="Shape" d="m52 32c0 3.8659932-3.1340068 7-7 7v-7z" fill="#f0c419"/><path id="Shape" d="m45 32v7c-3.3801806-.0044885-6.2743175-2.4237671-6.8781192-5.749585-.6038016-3.3258179 1.2552301-6.6080334 4.4181192-7.800415z" fill="#3b97d3"/><path id="Shape" d="m37 13h-8c-.5522847 0-1-.4477153-1-1s.4477153-1 1-1h8c.5522847 0 1 .4477153 1 1s-.4477153 1-1 1z" fill="#3f5c6c"/><path id="Shape" d="m42 17h-13c-.5522847 0-1-.4477153-1-1s.4477153-1 1-1h13c.5522847 0 1 .4477153 1 1s-.4477153 1-1 1z" fill="#3f5c6c"/><path id="Shape" d="m50 17h-4c-.5522847 0-1-.4477153-1-1s.4477153-1 1-1h4c.5522847 0 1 .4477153 1 1s-.4477153 1-1 1z" fill="#3f5c6c"/><rect id="Rectangle-path" fill="#a56a43" height="4" rx="2" width="58" y="3"/><rect id="Rectangle-path" fill="#a56a43" height="4" rx="2" width="58" y="43"/><rect id="Rectangle-path" fill="#f3d55b" height="8" rx="2" width="4" x="6" y="13.999"/><rect id="Rectangle-path" fill="#f3d55b" height="14" rx="2" width="4" x="19" y="10.999"/><path id="Shape" d="m19 22.999-2.71-.9-6.29-2.1v-4l9-3z" fill="#f0c419"/></g></g></svg>