<?xml version="1.0" encoding="iso-8859-1"?>
<!-- Generator: Adobe Illustrator 19.0.0, SVG Export Plug-In . SVG Version: 6.00 Build 0)  -->
<svg version="1.1" id="Capa_1" xmlns="http://www.w3.org/2000/svg" xmlns:xlink="http://www.w3.org/1999/xlink" x="0px" y="0px"
	 viewBox="0 0 517.6 517.6" style="enable-background:new 0 0 517.6 517.6;" xml:space="preserve">
<path style="fill:#FFFFFF;" d="M358.4,280h-63.2c-19.2,25.6-46.4,41.6-76.8,41.6s-57.6-16-76.8-41.6H76.8
	C40,280,9.6,310.4,9.6,347.2v64h416v-64C424.8,310.4,395.2,280,358.4,280z"/>
<path style="fill:#FDBF5E;" d="M41.6,379.2v-32c0-19.2,16-35.2,35.2-35.2h49.6c24.8,26.4,57.6,41.6,92,41.6s66.4-15.2,92-41.6h48
	c19.2,0,35.2,16,35.2,35.2v32H41.6z"/>
<path style="fill:#FFFFFF;" d="M492.8,447.2l12.8-32l-23.2-13.6c1.6-12,1.6-24-0.8-35.2L504,352l-13.6-31.2l-25.6,6.4
	c-7.2-9.6-15.2-17.6-25.6-24l5.6-25.6l-32-12.8l-13.6,22.4c-12-1.6-24-1.6-35.2,0.8l-13.6-21.6L319.2,280l6.4,25.6
	c-9.6,7.2-17.6,15.2-24,25.6l-25.6-5.6l-12.8,32l22.4,13.6c-1.6,12-1.6,24,0.8,35.2L264,420.8l13.6,31.2l25.6-6.4
	c7.2,9.6,15.2,17.6,25.6,24l-5.6,25.6l32,12.8l13.6-22.4c12,1.6,24,1.6,35.2-0.8l14.4,22.4l31.2-13.6l-7.2-27.2
	c9.6-7.2,17.6-15.2,24-25.6L492.8,447.2z"/>
<circle style="fill:#F16051;" cx="384" cy="386.4" r="66.4"/>
<path style="fill:#FFFFFF;" d="M303.2,176.8c0,57.6-37.6,93.6-84,93.6s-84-36-84-93.6c0-20.8-5.6-62.4,3.2-78.4
	C153.6,69.6,190.4,72,220,72c32,0,74.4-1.6,88.8,31.2C313.6,118.4,303.2,159.2,303.2,176.8z"/>
<path style="fill:#F16051;" d="M236,78.4c0,0-26.4,14.4-56,13.6s-38.4,6.4-46.4,27.2c0,0-1.6,44.8,0,50.4c0,0-4-16.8-12.8-25.6
	c-3.2-3.2-5.6-8-5.6-12c0-18.4-0.8-60.8,0-64.8c1.6-4.8,8.8-52.8,62.4-53.6c0,0,64-5.6,104,1.6c0,0,15.2,4.8,10.4,24.8
	c0,0,24.8,6.4,25.6,29.6c0,0,1.6,44,0.8,64c0,4-1.6,8-4,10.4c-4.8,4.8-12,14.4-12,24c0,0.8,0.8-44.8,0.8-44.8S304,102.4,284,96
	C284.8,96,277.6,95.2,236,78.4z"/>
<g>
	<path style="fill:#193651;" d="M491.2,397.6c0.8-8.8,0.8-18.4-0.8-27.2l23.2-15.2l-19.2-44l-27.2,7.2c-5.6-7.2-12-13.6-19.2-18.4
		l5.6-27.2l-44.8-17.6l-14.4,24c-8.8-0.8-18.4-0.8-27.2,0.8L352,256.8l-36.8,16h-25.6l-2.4,3.2c-18.4,24.8-44,38.4-70.4,38.4
		s-52-13.6-70.4-38.4l-2.4-3.2H76.8c-41.6,0-75.2,33.6-75.2,75.2v72h253.6l18.4,41.6l27.2-7.2c5.6,7.2,12,13.6,19.2,18.4l-5.6,27.2
		l44.8,17.6l14.4-24c8.8,0.8,18.4,0.8,27.2-0.8L416,516l44-19.2l-7.2-27.2c7.2-5.6,13.6-12,18.4-19.2l27.2,5.6l17.6-44.8
		L491.2,397.6z M17.6,347.2c0-32.8,26.4-59.2,59.2-59.2h60.8c21.6,26.4,50.4,41.6,80.8,41.6s60-15.2,80.8-41.6h14.4l4,14.4
		c-7.2,5.6-13.6,12-18.4,19.2L272,316l-17.6,44.8l24,14.4c-0.8,8.8-0.8,18.4,0.8,27.2l-1.6,1.6h-260C17.6,404,17.6,347.2,17.6,347.2
		z M488,437.6l-24.8-5.6l-3.2,4.8c-6.4,8.8-13.6,16.8-22.4,23.2l-4.8,3.2l6.4,24l-19.2,8l-13.6-20.8l-4,1.6
		c-10.4,2.4-21.6,2.4-32,0.8l-5.6-0.8L352,497.6l-19.2-7.2l5.6-24.8l-4.8-3.2c-8.8-6.4-16.8-13.6-23.2-22.4l-3.2-4.8l-24,6.4
		l-8-19.2l20.8-13.6l-0.8-5.6c-2.4-10.4-2.4-21.6-0.8-32l0.8-5.6l-21.6-12.8l7.2-19.2l24.8,5.6l3.2-4.8c6.4-8.8,13.6-16.8,22.4-23.2
		l4.8-3.2l-6.4-24l19.2-8l13.6,20.8l5.6-0.8c10.4-2.4,21.6-2.4,32-0.8l5.6,0.8l12.8-21.6l19.2,7.2l-7.2,24.8l4.8,3.2
		c8.8,6.4,16.8,13.6,23.2,22.4l3.2,4.8l24-6.4l8,19.2l-20.8,12.8l0.8,5.6c2.4,10.4,2.4,21.6,0.8,32l-0.8,5.6l21.6,12.8L488,437.6z"
		/>
	<path style="fill:#193651;" d="M115.2,149.6c5.6,5.6,9.6,17.6,10.4,21.6l0,0c0,2.4,0,4,0,5.6c0,59.2,39.2,101.6,92,101.6
		c53.6,0,92-42.4,92-101.6c0-3.2,0.8-8,1.6-13.6c1.6-4,4.8-9.6,8.8-14.4c4-4,5.6-9.6,6.4-16c0.8-20,0-62.4-0.8-64.8
		c-0.8-20.8-16-30.4-24.8-34.4c0.8-16.8-10.4-24.8-16.8-27.2h-0.8c-14.4-2.4-32.8-4-56-4c-27.2,0-49.6,2.4-50.4,2.4
		c-25.6,0.8-57.6,11.2-69.6,57.6V64c0,2.4-0.8,5.6,0,68C108,138.4,110.4,144,115.2,149.6z M218.4,262.4c-44.8,0-76-35.2-76-85.6
		c0-4.8,0-9.6-0.8-15.2l-0.8,0.8c0-8.8,0-25.6,0.8-41.6c6.4-16,12-20.8,33.6-20.8c1.6,0,3.2,0,4.8,0c0.8,0,1.6,0,3.2,0l0,0
		c24,0,45.6-8.8,53.6-12.8c30.4,12.8,41.6,16,46.4,16.8c12.8,4.8,12.8,17.6,12.8,20c-0.8,22.4-0.8,34.4-0.8,41.6c0,0.8,0,2.4,0,3.2
		h0.8l0,0c0,3.2-0.8,6.4-0.8,8.8C295.2,227.2,263.2,262.4,218.4,262.4z M123.2,69.6c0-0.8,0.8-1.6,0.8-2.4
		c7.2-29.6,25.6-44.8,55.2-45.6c0,0,23.2-2.4,49.6-2.4c20.8,0,38.4,1.6,52,4c2.4,0.8,7.2,4,4.8,15.2l-1.6,8l8,1.6
		c0,0,19.2,4.8,20,22.4c0,0,0.8,28,0.8,48.8c-0.8-10.4-7.2-24.8-24.8-30.4h-1.6c0,0-8.8-1.6-46.4-16.8l-3.2-1.6l-3.2,1.6
		c0,0-23.2,12.8-49.6,12.8h-2.4c-32-0.8-44.8,6.4-54.4,32.8l-0.8,1.6v1.6c0,4.8,0,11.2-0.8,17.6c-0.8-1.6-1.6-3.2-1.6-4.8
		C122.4,90.4,123.2,72,123.2,69.6z"/>
</g>
<circle style="fill:#FFFFFF;" cx="384" cy="386.4" r="29.6"/>
<g>
	<path style="fill:#193651;" d="M384,423.2c-20.8,0-37.6-16.8-37.6-37.6S363.2,348,384,348s37.6,16.8,37.6,37.6
		C421.6,406.4,404.8,423.2,384,423.2z M384,364.8c-12,0-21.6,9.6-21.6,21.6S372,408,384,408s21.6-9.6,21.6-21.6S396,364.8,384,364.8
		z"/>
	<polygon style="fill:#193651;" points="444.8,0 393.6,53.6 404.8,64.8 444.8,23.2 484.8,64.8 496,53.6 	"/>
	<rect x="436.8" y="57.6" style="fill:#193651;" width="16" height="16"/>
	<rect x="436.8" y="100.8" style="fill:#193651;" width="16" height="16"/>
	<rect x="436.8" y="144.8" style="fill:#193651;" width="16" height="16"/>
	<rect x="436.8" y="188.8" style="fill:#193651;" width="16" height="16"/>
	<rect x="436.8" y="232" style="fill:#193651;" width="16" height="16"/>
</g>
<g>
</g>
<g>
</g>
<g>
</g>
<g>
</g>
<g>
</g>
<g>
</g>
<g>
</g>
<g>
</g>
<g>
</g>
<g>
</g>
<g>
</g>
<g>
</g>
<g>
</g>
<g>
</g>
<g>
</g>
</svg>
